<svg 
  height="512pt" 
  viewBox="-43 0 512 512.09264" 
  width="512pt" 
  xmlns="http://www.w3.org/2000/svg"
>
  <defs>
      <linearGradient id="Gradient1">
        <stop class="stop1" offset="0%"/>
        <stop class="stop2" offset="100%"/>
      </linearGradient>
      <style type="text/css"><![CDATA[
        #rect1 { fill: url(#Gradient1); }
        .stop1 { stop-color: #01283c; }
        .stop2 { stop-color: #0b4866; }
      ]]></style>
  </defs>
  <path 
    id="rect1" d="m426.714844 299.269531c0-2.59375-1.183594-5.050781-3.214844-6.667969-2.027344-1.621093-4.683594-2.226562-7.214844-1.652343-28.554687 6.515625-45.824218 3.023437-52.789062-10.648438-8.363282-16.460937-5.636719-39.296875-3.230469-59.449219l1.832031-16.105468c4.183594-29.371094 5.667969-59.066406 4.4375-88.707032-1.851562-25.292968-6.585937-57.207031-26.925781-79.679687-41.03125-45.476563-126.667969-45.085937-179.382813-16.523437-1.171874-.042969-2.679687-.066407-4.445312-.03125h-1.03125c-20.300781.417968-87.136719 8.316406-94.933594 92.492187-1.53125 29.164063-.105468 58.40625 4.257813 87.28125 4.496093 38.34375 8.746093 74.558594-6.144531 87.921875-8.421876 7.558594-24.394532 8.714844-47.453126 3.453125-2.53125-.578125-5.1875.027344-7.21875 1.648437-2.027343 1.617188-3.210937 4.074219-3.210937 6.667969.921875 20.855469 10.371094 40.410157 26.136719 54.089844-19.789063 26.503906-23.164063 61.824219-8.75 91.597656 14.414062 29.769531 44.214844 49.027344 77.28125 49.941407 11.144531 11.019531 26.191406 17.199218 41.863281 17.195312h153.601563c15.675781.003906 30.71875-6.175781 41.867187-17.195312 33.054687-.972657 62.828125-20.246094 77.25-50.003907 14.421875-29.761719 11.097656-65.074219-8.625-91.621093 15.707031-13.675782 25.117187-33.195313 26.042969-54.003907zm-408.066406 10.617188c22.914062 3.503906 39.574218.292969 50.6875-9.6875 21.472656-19.269531 16.9375-57.890625 11.691406-102.605469-4.238282-27.695312-5.648438-55.75-4.214844-83.730469 6.3125-68.171875 56.851562-76.554687 78.117188-76.992187h1.039062c1.765625-.0625 3.535156-.023438 5.296875.121094 1.777344.1875 3.570313-.179688 5.125-1.058594 46.789063-26.554688 125.378906-27.109375 160.554687 11.871094 16.859376 18.628906 20.914063 46.914062 22.5625 69.46875 1.136719 28.601562-.328124 57.242187-4.375 85.578124l-1.816406 15.980469c-2.558594 21.441407-5.75 48.125 4.964844 69.203125 9.648438 18.945313 29.757812 26.269532 59.808594 21.820313-2.816406 12.015625-9.417969 22.808593-18.832032 30.789062-14.414062-13.050781-32.714843-21.007812-52.089843-22.65625l-63.046875-5.488281c-3.734375-11.46875-6.378906-23.261719-7.890625-35.226562 10.097656-9.949219 18.285156-21.667969 24.144531-34.578126 3.351562-7.070312 6.144531-14.394531 8.351562-21.902343 11.53125-2.890625 34.121094-13.320313 34.121094-50.632813 0-6.363281 0-25.734375-12.75-31.878906-4.085937-1.867188-8.707031-2.191406-13.015625-.914062-.074219-3.550782-.125-7.140626-.375-10.429688-.179687-2.023438-1.089843-3.910156-2.558593-5.3125l.078124-.09375c-27.671874-27.570312-39.800781-27.570312-90.847656-27.570312-32.632812 0-45.125-19.191407-49.671875-30.632813-.1875-.339844-.398437-.664063-.632812-.976563-.144531-.359374-.3125-.707031-.507813-1.042968-.109375-.144532-.277344-.210938-.398437-.347656-.78125-.78125-1.652344-1.46875-2.597657-2.042969-1.429687-.773438-3.074218-1.046875-4.679687-.777344-.585937.042969-1.167969.148437-1.730469.3125-.175781.058594-.355468.027344-.53125.097656-.335937.1875-.660156.398438-.96875.632813-.363281.144531-.714844.3125-1.050781.511718-.265625.199219-.484375.453126-.75.660157l-.097656.085937c-19.492188 15.359375-29.324219 40.617188-30.097657 76.921875-4.300781-1.269531-8.917968-.945312-13 .917969-12.75 6.144531-12.75 25.515625-12.75 31.878906 0 37.179688 22.433594 47.671875 34 50.605469 2.183594 7.5 4.949219 14.820313 8.277344 21.890625 5.867188 13.019531 14.121094 24.824219 24.335938 34.808594-1.480469 11.898437-4.097656 23.628906-7.808594 35.03125l-63.125 5.496094c-19.363281 1.65625-37.636719 9.652343-51.992188 22.75-9.488281-7.964844-16.140624-18.789063-18.953124-30.855469zm101.003906-154.0625c.148437 14.925781 1.386718 29.820312 3.703125 44.566406-6.53125-4.507813-12.375-13.273437-12.375-30.230469 0-13.832031 3.070312-16.484375 3.050781-16.484375 2.042969.144531 4 .894531 5.621094 2.148438zm16.925781-13.90625c0-28.023438 5.597656-48.15625 16.878906-61.363281 12.992188 20.246093 35.90625 31.898437 59.921875 30.472656 48.964844 0 55.722656.0625 76.421875 20.269531.195313 3.4375.378907 6.890625.378907 10.621094 0 37.945312-2.546876 66.816406-15.222657 93.457031-14.542969 30.734375-35.265625 46.316406-61.578125 46.316406-26.523437 0-47.296875-15.574218-61.746094-46.3125-12.535156-26.511718-15.054687-55.414062-15.054687-93.460937zm176.089844 11.726562c.027343.023438 3.113281 2.664063 3.113281 16.519531 0 17.007813-5.882812 25.769532-12.441406 30.265626 2.355468-14.757813 3.613281-29.671876 3.765625-44.613282 1.59375-1.265625 3.53125-2.023437 5.5625-2.167968zm-145.75 169.898438c4.140625-11.21875 7.199219-22.808594 9.132812-34.613281 23.148438 13.136718 51.511719 13.101562 74.628907-.097657 1.929687 11.683594 4.949218 23.164063 9.015624 34.285157l.113282.339843c.972656 2.644531 1.914062 5.035157 2.863281 7.246094-13.867187 11.660156-31.191406 18.429687-49.292969 19.257813-18.09375-.871094-35.402344-7.640626-49.285156-19.277344.941406-2.191406 1.871094-4.550782 2.824219-7.136719zm36.988281 171.484375c3.660156-3.597656 6.84375-7.652344 9.472656-12.058594 2.628906 4.40625 5.8125 8.460938 9.472656 12.058594zm140.988281-18.773438c3.308594-7.53125 5.019531-15.667968 5.019531-23.894531v-42.667969c0-4.710937-3.820312-8.53125-8.535156-8.53125-4.710937 0-8.53125 3.820313-8.53125 8.53125v42.667969c-.027344 23.550781-19.117187 42.640625-42.667968 42.667969h-25.601563c-23.550781-.027344-42.636719-19.117188-42.664063-42.667969v-8.535156c0-4.710938-3.820312-8.53125-8.535156-8.53125-4.710937 0-8.53125 3.820312-8.53125 8.53125v8.535156c-.027344 23.550781-19.117187 42.640625-42.667968 42.667969h-25.601563c-23.550781-.027344-42.636719-19.117188-42.664063-42.667969v-42.667969c0-4.710937-3.820312-8.53125-8.535156-8.53125-4.710937 0-8.53125 3.820313-8.53125 8.53125v42.667969c0 8.226563 1.710938 16.363281 5.019532 23.894531-34.539063-7.605468-58.351563-39.289062-56.054688-74.582031 2.300781-35.292969 30.023438-63.621094 65.257812-66.679687l54.578126-4.753907c-1.046876 3.035157-.289063 6.398438 1.960937 8.6875 17.828125 16.976563 41.179687 26.953125 65.769531 28.101563 24.589844-1.148438 47.941406-11.125 65.765625-28.101563 2.25-2.289062 3.011719-5.652343 1.964844-8.6875l54.5625 4.753907c17.5625 1.496093 33.957031 9.414062 46.046875 22.246093.324219.421875.6875.8125 1.085938 1.164063 17.007812 18.976562 22.664062 45.550781 14.859374 69.804687-7.804687 24.253907-27.894531 42.546875-52.773437 48.046875zm0 0"
  />
</svg>